{
 "id": 377748,
 "bug_id": 109379,
 "attachment_id": 0,
 "creation_time": "2007-04-02T18:14:51Z",
 "creator": "fenner@research.att.com",
 "text": "While faad 2.5,1 includes API compatability,\nas I stated in the description of the problem,\nthe linkage that ffmpeg uses is not able to\nuse that API compatability.  This is because\nthe faad API compatability is performed with\n#defines, and the ffmpeg linkage happens with\nfancy macros that put together the function\nnames in a way that doesn't allow the #defines\nto work.\n\n(The dfaac() macro in libavcodec/faad.c\nuses \"faacDec\" ## a to put symbols together\nto get, e.g. faacDecGetErrorMessage, into\nstrings, which it then looks up in the shared\nlibrary with dlsym(), which never gives the\n\"compatability API\" a chance to get in the\nmiddle).\n\nWere you able to get the steps in \"how-to-repeat:\"\nto work, or did you just close the PR because\nyou think it is supposed to work?  I think it is\nsupposed to work too, but that doesn't mean it does.\n\nI spent an hour rebuilding faad (of which I already\nhad 2.5,1 installed) and ffmpeg-devel (which I upgraded\nfrom ffmpeg-devel-0.4.9.c.2006032300_4 to\nffmpeg-devel-0.4.9.c.2006032300_5) to make sure that\nthe bug was still there.\n\nfrogbits% pkg_info -I ffmpeg\\* faad\\*\nfaad2-2.5,1         MPEG-2 and MPEG-4 AAC audio decoder\nffmpeg-devel-0.4.9.c.2006032300_5 Hyper fast realtime audio/video encoder/converter, streamin\nfrogbits% ffmpeg -i Diego-2.mp4 /tmp/foo.mpeg\nFFmpeg version CVS, Copyright (c) 2000-2004 Fabrice Bellard\n  configuration:  --cc=cc --prefix=/usr/local --make=gmake --disable-debug --enable-memalign-hack --enable-shared --source-path=/usr/ports/multimedia/ffmpeg-devel/work/FFMpeg-2006032300 --enable-a52 --enable-dts --enable-faac --enable-faad --enable-faadbin --enable-gpl --enable-libgsm --enable-mp3lame --enable-libogg --enable-pp --enable-pthreads --enable-vorbis --enable-x264 --enable-xvid \n  libavutil version: 49.0.0\n  libavcodec version: 51.8.0\n  libavformat version: 50.4.0\n  built on Apr  2 2007 10:02:29, gcc: 3.4.4 [FreeBSD] 20050518\n\nSeems that stream 0 comes from film source: 24000.00 (24000/1) -\u003e 23.98 (24000/1001)\nInput #0, mov,mp4,m4a,3gp,3g2,mj2, from 'Diego-2.mp4':\n  Duration: 00:42:45.1, start: 0.000000, bitrate: 1129 kb/s\n  Stream #0.0(eng), 23.98 fps(r): Video: mpeg4, yuv420p, 640x480\n  Stream #0.1(eng): Audio: aac, 44100 Hz, stereo\nOutput #0, mpeg, to '/tmp/foo.mpeg':\n  Stream #0.0, 23.98 fps(c): Video: mpeg1video, yuv420p, 640x480, q=2-31, 200 kb/s\n  Stream #0.1: Audio: mp2, 44100 Hz, stereo, 64 kb/s\nStream mapping:\n  Stream #0.0 -\u003e #0.0\n  Stream #0.1 -\u003e #0.1\n[aac @ 0x28356028]FAAD library: cannot resolve faacDecGetErrorMessage in libfaad.so.0!\nError while opening codec for input stream #0.1\n\n\n  Bill"
}